<mxfile host="app.diagrams.net" modified="2022-09-28T09:32:21.688Z" agent="5.0 (Windows NT 10.0; Win64; x64) AppleWebKit/537.36 (KHTML, like Gecko) Chrome/105.0.0.0 Safari/537.36" etag="-5kEGzuYKxf_qZO35Z7z" version="20.0.4" type="github">
  <diagram id="tAOSIt484y5wAreV0J6-" name="Page-1">
    <mxGraphModel dx="1038" dy="575" grid="1" gridSize="10" guides="1" tooltips="1" connect="1" arrows="1" fold="1" page="1" pageScale="1" pageWidth="1100" pageHeight="850" math="0" shadow="0">
      <root>
        <mxCell id="0" />
        <mxCell id="1" parent="0" />
        <mxCell id="NhWlBnxvDwk3m23bGFBo-44" value="" style="sketch=0;points=[[0.015,0.015,0],[0.985,0.015,0],[0.985,0.985,0],[0.015,0.985,0],[0.25,0,0],[0.5,0,0],[0.75,0,0],[1,0.25,0],[1,0.5,0],[1,0.75,0],[0.75,1,0],[0.5,1,0],[0.25,1,0],[0,0.75,0],[0,0.5,0],[0,0.25,0]];verticalLabelPosition=bottom;html=1;verticalAlign=top;aspect=fixed;align=center;pointerEvents=1;shape=mxgraph.cisco19.dns_server;fillColor=#005073;strokeColor=none;" parent="1" vertex="1">
          <mxGeometry x="40" y="320" width="27.500000000000004" height="50" as="geometry" />
        </mxCell>
        <mxCell id="NhWlBnxvDwk3m23bGFBo-45" value="" style="outlineConnect=0;dashed=0;verticalLabelPosition=bottom;verticalAlign=top;align=center;html=1;shape=mxgraph.aws3.classic_load_balancer;fillColor=#F58534;gradientColor=none;" parent="1" vertex="1">
          <mxGeometry x="120" y="298" width="69" height="72" as="geometry" />
        </mxCell>
        <mxCell id="NhWlBnxvDwk3m23bGFBo-46" value="" style="aspect=fixed;perimeter=ellipsePerimeter;html=1;align=center;shadow=0;dashed=0;spacingTop=3;image;image=img/lib/active_directory/web_server.svg;" parent="1" vertex="1">
          <mxGeometry x="280" y="240" width="40" height="50" as="geometry" />
        </mxCell>
        <mxCell id="NhWlBnxvDwk3m23bGFBo-47" value="" style="aspect=fixed;perimeter=ellipsePerimeter;html=1;align=center;shadow=0;dashed=0;spacingTop=3;image;image=img/lib/active_directory/web_server.svg;" parent="1" vertex="1">
          <mxGeometry x="280" y="320" width="40" height="50" as="geometry" />
        </mxCell>
        <mxCell id="NhWlBnxvDwk3m23bGFBo-48" value="" style="aspect=fixed;perimeter=ellipsePerimeter;html=1;align=center;shadow=0;dashed=0;spacingTop=3;image;image=img/lib/active_directory/web_server.svg;" parent="1" vertex="1">
          <mxGeometry x="280" y="400" width="40" height="50" as="geometry" />
        </mxCell>
        <mxCell id="NhWlBnxvDwk3m23bGFBo-49" value="" style="sketch=0;aspect=fixed;pointerEvents=1;shadow=0;dashed=0;html=1;strokeColor=none;labelPosition=center;verticalLabelPosition=bottom;verticalAlign=top;align=center;fillColor=#00188D;shape=mxgraph.mscae.enterprise.application_server" parent="1" vertex="1">
          <mxGeometry x="382" y="283" width="43" height="50" as="geometry" />
        </mxCell>
        <mxCell id="NhWlBnxvDwk3m23bGFBo-50" value="" style="sketch=0;aspect=fixed;pointerEvents=1;shadow=0;dashed=0;html=1;strokeColor=none;labelPosition=center;verticalLabelPosition=bottom;verticalAlign=top;align=center;fillColor=#00188D;shape=mxgraph.mscae.enterprise.application_server" parent="1" vertex="1">
          <mxGeometry x="382" y="375" width="43" height="50" as="geometry" />
        </mxCell>
        <mxCell id="NhWlBnxvDwk3m23bGFBo-51" value="" style="shape=flexArrow;endArrow=classic;html=1;rounded=0;" parent="1" edge="1">
          <mxGeometry width="50" height="50" relative="1" as="geometry">
            <mxPoint x="73" y="345" as="sourcePoint" />
            <mxPoint x="120.5" y="344.5" as="targetPoint" />
          </mxGeometry>
        </mxCell>
        <mxCell id="NhWlBnxvDwk3m23bGFBo-52" value="" style="shape=flexArrow;endArrow=classic;html=1;rounded=0;exitX=1;exitY=0.5;exitDx=0;exitDy=0;entryX=0;entryY=0.5;entryDx=0;entryDy=0;" parent="1" source="NhWlBnxvDwk3m23bGFBo-57" target="NhWlBnxvDwk3m23bGFBo-58" edge="1">
          <mxGeometry width="50" height="50" relative="1" as="geometry">
            <mxPoint x="317" y="344.5" as="sourcePoint" />
            <mxPoint x="377" y="340" as="targetPoint" />
          </mxGeometry>
        </mxCell>
        <mxCell id="NhWlBnxvDwk3m23bGFBo-53" value="" style="endArrow=classic;html=1;rounded=0;exitX=1;exitY=0.5;exitDx=0;exitDy=0;exitPerimeter=0;entryX=0;entryY=0.5;entryDx=0;entryDy=0;" parent="1" source="NhWlBnxvDwk3m23bGFBo-45" target="NhWlBnxvDwk3m23bGFBo-46" edge="1">
          <mxGeometry width="50" height="50" relative="1" as="geometry">
            <mxPoint x="520" y="510" as="sourcePoint" />
            <mxPoint x="570" y="460" as="targetPoint" />
          </mxGeometry>
        </mxCell>
        <mxCell id="NhWlBnxvDwk3m23bGFBo-54" value="" style="endArrow=classic;html=1;rounded=0;exitX=1;exitY=0.5;exitDx=0;exitDy=0;exitPerimeter=0;entryX=0;entryY=0.5;entryDx=0;entryDy=0;" parent="1" source="NhWlBnxvDwk3m23bGFBo-45" target="NhWlBnxvDwk3m23bGFBo-47" edge="1">
          <mxGeometry width="50" height="50" relative="1" as="geometry">
            <mxPoint x="199" y="344" as="sourcePoint" />
            <mxPoint x="290" y="275" as="targetPoint" />
          </mxGeometry>
        </mxCell>
        <mxCell id="NhWlBnxvDwk3m23bGFBo-55" value="" style="endArrow=classic;html=1;rounded=0;entryX=0;entryY=0.75;entryDx=0;entryDy=0;exitX=1;exitY=0.5;exitDx=0;exitDy=0;exitPerimeter=0;" parent="1" source="NhWlBnxvDwk3m23bGFBo-45" target="NhWlBnxvDwk3m23bGFBo-48" edge="1">
          <mxGeometry width="50" height="50" relative="1" as="geometry">
            <mxPoint x="199" y="344" as="sourcePoint" />
            <mxPoint x="290" y="355" as="targetPoint" />
          </mxGeometry>
        </mxCell>
        <mxCell id="NhWlBnxvDwk3m23bGFBo-57" value="" style="rounded=0;whiteSpace=wrap;html=1;fillOpacity=0;" parent="1" vertex="1">
          <mxGeometry x="270" y="233" width="50" height="217" as="geometry" />
        </mxCell>
        <mxCell id="NhWlBnxvDwk3m23bGFBo-58" value="" style="rounded=0;whiteSpace=wrap;html=1;fillOpacity=0;" parent="1" vertex="1">
          <mxGeometry x="375" y="233" width="57" height="217" as="geometry" />
        </mxCell>
        <mxCell id="NhWlBnxvDwk3m23bGFBo-60" value="" style="outlineConnect=0;dashed=0;verticalLabelPosition=bottom;verticalAlign=top;align=center;html=1;shape=mxgraph.aws3.cache_node;fillColor=#2E73B8;gradientColor=none;" parent="1" vertex="1">
          <mxGeometry x="490" y="298" width="60" height="63" as="geometry" />
        </mxCell>
        <mxCell id="NhWlBnxvDwk3m23bGFBo-61" value="" style="shape=datastore;whiteSpace=wrap;html=1;" parent="1" vertex="1">
          <mxGeometry x="610" y="298" width="60" height="60" as="geometry" />
        </mxCell>
        <mxCell id="NhWlBnxvDwk3m23bGFBo-63" value="" style="shape=flexArrow;endArrow=classic;html=1;rounded=0;exitX=1;exitY=0.5;exitDx=0;exitDy=0;entryX=0;entryY=0.5;entryDx=0;entryDy=0;" parent="1" edge="1">
          <mxGeometry width="50" height="50" relative="1" as="geometry">
            <mxPoint x="435" y="341.5" as="sourcePoint" />
            <mxPoint x="490" y="341.5" as="targetPoint" />
          </mxGeometry>
        </mxCell>
        <mxCell id="NhWlBnxvDwk3m23bGFBo-64" value="" style="shape=flexArrow;endArrow=classic;html=1;rounded=0;exitX=1;exitY=0.5;exitDx=0;exitDy=0;entryX=0;entryY=0.5;entryDx=0;entryDy=0;" parent="1" edge="1">
          <mxGeometry width="50" height="50" relative="1" as="geometry">
            <mxPoint x="554" y="342.5" as="sourcePoint" />
            <mxPoint x="609" y="342.5" as="targetPoint" />
          </mxGeometry>
        </mxCell>
      </root>
    </mxGraphModel>
  </diagram>
</mxfile>
